<?xml version="1.0" encoding="UTF-8" standalone="no"?>
<!-- Created with Inkscape (http://www.inkscape.org/) -->

<svg
   xmlns:dc="http://purl.org/dc/elements/1.1/"
   xmlns:cc="http://creativecommons.org/ns#"
   xmlns:rdf="http://www.w3.org/1999/02/22-rdf-syntax-ns#"
   xmlns:svg="http://www.w3.org/2000/svg"
   xmlns="http://www.w3.org/2000/svg"
   xmlns:xlink="http://www.w3.org/1999/xlink"
   xmlns:sodipodi="http://sodipodi.sourceforge.net/DTD/sodipodi-0.dtd"
   xmlns:inkscape="http://www.inkscape.org/namespaces/inkscape"
   width="300"
   height="100"
   viewBox="0 0 300 100"
   id="svg2"
   version="1.1"
   inkscape:version="0.91 r13725"
   sodipodi:docname="zenity-logo.svg"
   inkscape:export-filename="/home/awrapp/Documents/ZenityWIP/zenity-logo-color.png"
   inkscape:export-xdpi="180"
   inkscape:export-ydpi="180">
  <defs
     id="defs4">
    <linearGradient
       id="linearGradient5739"
       inkscape:collect="always">
      <stop
         id="stop5741"
         offset="0"
         style="stop-color:#80ceff;stop-opacity:0.50196081" />
      <stop
         id="stop5743"
         offset="1"
         style="stop-color:#ff80e0;stop-opacity:0.50196081" />
    </linearGradient>
    <linearGradient
       inkscape:collect="always"
       id="linearGradient4370">
      <stop
         style="stop-color:#80ceff;stop-opacity:1"
         offset="0"
         id="stop4372" />
      <stop
         style="stop-color:#ff80e0;stop-opacity:1"
         offset="1"
         id="stop4374" />
    </linearGradient>
    <linearGradient
       inkscape:collect="always"
       xlink:href="#linearGradient4370"
       id="linearGradient4376"
       x1="241.80078"
       y1="1034.3622"
       x2="60"
       y2="962.36218"
       gradientUnits="userSpaceOnUse" />
    <linearGradient
       gradientTransform="translate(0,-952.3622)"
       inkscape:collect="always"
       xlink:href="#linearGradient4370"
       id="linearGradient4376-5"
       x1="241.80078"
       y1="1034.3622"
       x2="60"
       y2="962.36218"
       gradientUnits="userSpaceOnUse" />
    <linearGradient
       inkscape:collect="always"
       xlink:href="#linearGradient4370"
       id="linearGradient5471"
       x1="296"
       y1="80"
       x2="4"
       y2="20"
       gradientUnits="userSpaceOnUse" />
    <filter
       inkscape:collect="always"
       style="color-interpolation-filters:sRGB"
       id="filter5504"
       x="-0.0078461538"
       width="1.0156923"
       y="-0.0255"
       height="1.051">
      <feGaussianBlur
         inkscape:collect="always"
         stdDeviation="0.85"
         id="feGaussianBlur5506" />
    </filter>
    <linearGradient
       inkscape:collect="always"
       xlink:href="#linearGradient4370"
       id="linearGradient5471-6"
       x1="296"
       y1="80"
       x2="4"
       y2="20"
       gradientUnits="userSpaceOnUse" />
    <filter
       inkscape:collect="always"
       style="color-interpolation-filters:sRGB"
       id="filter5688"
       x="-0.013413699"
       width="1.0268274"
       y="-0.042573913"
       height="1.0851478">
      <feGaussianBlur
         inkscape:collect="always"
         stdDeviation="1.632"
         id="feGaussianBlur5690" />
    </filter>
    <filter
       inkscape:collect="always"
       style="color-interpolation-filters:sRGB"
       id="filter5711"
       x="-0.013413699"
       width="1.0268274"
       y="-0.042573913"
       height="1.0851478">
      <feGaussianBlur
         inkscape:collect="always"
         stdDeviation="1.632"
         id="feGaussianBlur5713" />
    </filter>
    <linearGradient
       gradientTransform="translate(2,-954.3622)"
       inkscape:collect="always"
       xlink:href="#linearGradient5739"
       id="linearGradient4376-5-4"
       x1="241.80078"
       y1="1034.3622"
       x2="60"
       y2="962.36218"
       gradientUnits="userSpaceOnUse" />
    <filter
       inkscape:collect="always"
       style="color-interpolation-filters:sRGB"
       id="filter5745"
       x="-0.0078461538"
       width="1.0156923"
       y="-0.0255"
       height="1.051">
      <feGaussianBlur
         inkscape:collect="always"
         stdDeviation="0.85"
         id="feGaussianBlur5747" />
    </filter>
  </defs>
  <sodipodi:namedview
     id="base"
     pagecolor="#ffffff"
     bordercolor="#666666"
     borderopacity="1.0"
     inkscape:pageopacity="0.0"
     inkscape:pageshadow="2"
     inkscape:zoom="2.8284271"
     inkscape:cx="163.68412"
     inkscape:cy="35.518632"
     inkscape:document-units="px"
     inkscape:current-layer="layer3"
     showgrid="true"
     units="px"
     showguides="true"
     inkscape:guide-bbox="true"
     inkscape:snap-intersection-paths="true"
     inkscape:object-nodes="true"
     inkscape:snap-bbox="true"
     inkscape:window-width="1920"
     inkscape:window-height="1053"
     inkscape:window-x="1920"
     inkscape:window-y="0"
     inkscape:window-maximized="1">
    <inkscape:grid
       type="xygrid"
       id="grid3336"
       empspacing="4" />
  </sodipodi:namedview>
  <metadata
     id="metadata7">
    <rdf:RDF>
      <cc:Work
         rdf:about="">
        <dc:format>image/svg+xml</dc:format>
        <dc:type
           rdf:resource="http://purl.org/dc/dcmitype/StillImage" />
        <dc:title></dc:title>
      </cc:Work>
    </rdf:RDF>
  </metadata>
  <g
     inkscape:groupmode="layer"
     id="layer2"
     inkscape:label="Simple-Black"
     style="display:none">
    <path
       style="fill:#000000;fill-opacity:1"
       d="m 20,10 0,4 36,0 -36,72 0,4 40,0 200,0 20,-12 0,-4 -20,12 -200,0 -36,0 36,-72 0,-4 -40,0 z m 44,0 0,72 4,0 36,0 0,-4 -36,0 0,-30 16,0 0,-4 -16,0 0,-30 36,0 0,-4 -36,0 -4,0 z m 44,0 0,72 4,0 0,-67.5 30,67.5 4,0 2,0 0,-72 -4,0 0,67.5 -30,-67.5 -2,0 -4,0 z m 44,0 0,4 18,0 0,64 -18,0 0,4 40,0 0,-4 -18,0 0,-64 18,0 4,0 18,0 0,68 4,0 0,-68 18,0 5.80078,0 L 258,50 l 0,32 4,0 0,-32 18,-40 -4,0 -16,36 -16,-36 -1,0 -7,0 -40,0 -4,0 -40,0 z"
       id="rect3342-9"
       inkscape:connector-curvature="0" />
  </g>
  <g
     inkscape:label="Simple-Color"
     inkscape:groupmode="layer"
     id="layer1"
     transform="translate(0,-952.3622)"
     style="display:none">
    <path
       style="fill:url(#linearGradient4376);fill-opacity:1"
       d="m 20,962.3622 0,4 36,0 -36,72 0,4 40,0 200,0 20,-12 0,-4 -20,12 -200,0 -36,0 36,-72 0,-4 -40,0 z m 44,0 0,72 4,0 36,0 0,-4 -36,0 0,-30 16,0 0,-4 -16,0 0,-30 36,0 0,-4 -36,0 -4,0 z m 44,0 0,72 4,0 0,-67.5 30,67.5 4,0 2,0 0,-72 -4,0 0,67.5 -30,-67.5 -2,0 -4,0 z m 44,0 0,4 18,0 0,64 -18,0 0,4 40,0 0,-4 -18,0 0,-64 18,0 4,0 18,0 0,68 4,0 0,-68 18,0 5.80078,0 16.19922,36 0,32 4,0 0,-32 18,-40 -4,0 -16,36 -16,-36 -1,0 -7,0 -40,0 -4,0 -40,0 z"
       id="rect3342"
       inkscape:connector-curvature="0" />
  </g>
  <g
     inkscape:groupmode="layer"
     id="layer4"
     inkscape:label="ColorInvert"
     style="display:none">
    <path
       style="display:inline;fill:#000000;fill-opacity:1;filter:url(#filter5711)"
       d="M 4,16 24,4 296,4 296,84 276,96 4,96 Z"
       id="rect5446-2-4"
       inkscape:connector-curvature="0"
       sodipodi:nodetypes="ccccccc" />
    <path
       style="display:inline;fill:#000000;fill-opacity:1"
       d="M 4,16 24,4 296,4 296,84 276,96 4,96 Z"
       id="rect5446-2"
       inkscape:connector-curvature="0"
       sodipodi:nodetypes="ccccccc" />
    <path
       style="display:inline;fill:url(#linearGradient4376-5-4);fill-opacity:1;filter:url(#filter5745)"
       d="m 22,8 0,4 36,0 -36,72 0,4 40,0 200,0 20,-12 0,-4 L 262,84 62,84 26,84 62,12 62,8 22,8 Z m 44,0 0,72 4,0 36,0 0,-4 -36,0 0,-30 16,0 0,-4 -16,0 0,-30 36,0 0,-4 -36,0 -4,0 z m 44,0 0,72 4,0 0,-67.5 30,67.5 4,0 2,0 0,-72 -4,0 0,67.5 -30,-67.5 -2,0 -4,0 z m 44,0 0,4 18,0 0,64 -18,0 0,4 40,0 0,-4 -18,0 0,-64 18,0 4,0 18,0 0,68 4,0 0,-68 18,0 5.80078,0 L 260,48 l 0,32 4,0 0,-32 18,-40 -4,0 -16,36 -16,-36 -1,0 -7,0 -40,0 -4,0 -40,0 z"
       id="rect3342-2-9"
       inkscape:connector-curvature="0" />
    <path
       style="display:inline;fill:url(#linearGradient4376-5);fill-opacity:1"
       d="m 20,10 0,4 36,0 -36,72 0,4 40,0 200,0 20,-12 0,-4 -20,12 -200,0 -36,0 36,-72 0,-4 -40,0 z m 44,0 0,72 4,0 36,0 0,-4 -36,0 0,-30 16,0 0,-4 -16,0 0,-30 36,0 0,-4 -36,0 -4,0 z m 44,0 0,72 4,0 0,-67.5 30,67.5 4,0 2,0 0,-72 -4,0 0,67.5 -30,-67.5 -2,0 -4,0 z m 44,0 0,4 18,0 0,64 -18,0 0,4 40,0 0,-4 -18,0 0,-64 18,0 4,0 18,0 0,68 4,0 0,-68 18,0 5.80078,0 L 258,50 l 0,32 4,0 0,-32 18,-40 -4,0 -16,36 -16,-36 -1,0 -7,0 -40,0 -4,0 -40,0 z"
       id="rect3342-2"
       inkscape:connector-curvature="0" />
  </g>
  <g
     inkscape:groupmode="layer"
     id="layer3"
     inkscape:label="Color"
     style="display:inline">
    <path
       style="display:inline;fill:url(#linearGradient5471-6);fill-opacity:1;filter:url(#filter5688)"
       d="M 4,16 24,4 296,4 296,84 276,96 4,96 Z"
       id="rect5446-8"
       inkscape:connector-curvature="0"
       sodipodi:nodetypes="ccccccc" />
    <path
       style="fill:url(#linearGradient5471);fill-opacity:1"
       d="M 4,16 24,4 296,4 296,84 276,96 4,96 Z"
       id="rect5446"
       inkscape:connector-curvature="0"
       sodipodi:nodetypes="ccccccc" />
    <path
       style="display:inline;fill:#000000;fill-opacity:0.50196078;filter:url(#filter5504)"
       d="m 22,8 0,4 36,0 -36,72 0,4 40,0 200,0 20,-12 0,-4 L 262,84 62,84 26,84 62,12 62,8 22,8 Z m 44,0 0,72 4,0 36,0 0,-4 -36,0 0,-30 16,0 0,-4 -16,0 0,-30 36,0 0,-4 -36,0 -4,0 z m 44,0 0,72 4,0 0,-67.5 30,67.5 4,0 2,0 0,-72 -4,0 0,67.5 -30,-67.5 -2,0 -4,0 z m 44,0 0,4 18,0 0,64 -18,0 0,4 40,0 0,-4 -18,0 0,-64 18,0 4,0 18,0 0,68 4,0 0,-68 18,0 5.80078,0 L 260,48 l 0,32 4,0 0,-32 18,-40 -4,0 -16,36 -16,-36 -1,0 -7,0 -40,0 -4,0 -40,0 z"
       id="rect3342-2-8-3"
       inkscape:connector-curvature="0" />
    <path
       style="display:inline;fill:#000000;fill-opacity:1"
       d="m 20,10 0,4 36,0 -36,72 0,4 40,0 200,0 20,-12 0,-4 -20,12 -200,0 -36,0 36,-72 0,-4 -40,0 z m 44,0 0,72 4,0 36,0 0,-4 -36,0 0,-30 16,0 0,-4 -16,0 0,-30 36,0 0,-4 -36,0 -4,0 z m 44,0 0,72 4,0 0,-67.5 30,67.5 4,0 2,0 0,-72 -4,0 0,67.5 -30,-67.5 -2,0 -4,0 z m 44,0 0,4 18,0 0,64 -18,0 0,4 40,0 0,-4 -18,0 0,-64 18,0 4,0 18,0 0,68 4,0 0,-68 18,0 5.80078,0 L 258,50 l 0,32 4,0 0,-32 18,-40 -4,0 -16,36 -16,-36 -1,0 -7,0 -40,0 -4,0 -40,0 z"
       id="rect3342-2-8"
       inkscape:connector-curvature="0" />
  </g>
</svg>
